<?xml version="1.0" encoding="UTF-8" standalone="no"?>
<!DOCTYPE svg PUBLIC "-//W3C//DTD SVG 1.1//EN"
 "http://www.w3.org/Graphics/SVG/1.1/DTD/svg11.dtd">
<!-- Generated by graphviz version 13.1.2 (20250808.2320)
 -->
<!-- Title: G Pages: 1 -->
<svg width="1005pt" height="964pt"
 viewBox="0.00 0.00 1005.00 964.00" xmlns="http://www.w3.org/2000/svg" xmlns:xlink="http://www.w3.org/1999/xlink">
<g id="graph0" class="graph" transform="scale(1 1) rotate(0) translate(4 960)">
<title>G</title><style>.edge>path:hover{stroke-width:8}</style>
<polygon fill="white" stroke="none" points="-4,4 -4,-960 1001.46,-960 1001.46,4 -4,4"/>
<!-- FreeBodyEngine -->
<g id="node1" class="node">
<title>FreeBodyEngine</title><style>.edge>path:hover{stroke-width:8}</style>
<polygon fill="blue" stroke="black" points="509.01,-108 421.01,-108 421.01,-72 509.01,-72 509.01,-108"/>
<text xml:space="preserve" text-anchor="middle" x="465.01" y="-86.5" font-family="Helvetica,sans-Serif" font-size="10.00" fill="white">FreeBodyEngine</text>
</g>
<!-- freebodyengine -->
<g id="node2" class="node">
<title>freebodyengine</title><style>.edge>path:hover{stroke-width:8}</style>
<ellipse fill="#2e6b6b" stroke="black" cx="465.01" cy="-18" rx="49.31" ry="18"/>
<text xml:space="preserve" text-anchor="middle" x="465.01" y="-14.5" font-family="Helvetica,sans-Serif" font-size="10.00" fill="#ffffff">freebodyengine</text>
</g>
<!-- FreeBodyEngine&#45;&gt;freebodyengine -->
<g id="edge1" class="edge">
<title>FreeBodyEngine&#45;&gt;freebodyengine</title><style>.edge>path:hover{stroke-width:8}</style>
<path fill="none" stroke="black" d="M465.01,-71.7C465.01,-64.41 465.01,-55.73 465.01,-47.54"/>
<polygon fill="blue" stroke="black" points="468.51,-47.62 465.01,-37.62 461.51,-47.62 468.51,-47.62"/>
</g>
<!-- FreeBodyEngine_core -->
<g id="node3" class="node">
<title>FreeBodyEngine_core</title><style>.edge>path:hover{stroke-width:8}</style>
<polygon fill="blue" stroke="black" points="398.51,-636 307.51,-636 307.51,-600 398.51,-600 398.51,-636"/>
<text xml:space="preserve" text-anchor="middle" x="353.01" y="-620.5" font-family="Helvetica,sans-Serif" font-size="10.00" fill="white">FreeBodyEngine.</text>
<text xml:space="preserve" text-anchor="middle" x="353.01" y="-608.5" font-family="Helvetica,sans-Serif" font-size="10.00" fill="white">core</text>
</g>
<!-- FreeBodyEngine_core&#45;&gt;FreeBodyEngine -->
<g id="edge2" class="edge">
<title>FreeBodyEngine_core&#45;&gt;FreeBodyEngine</title><style>.edge>path:hover{stroke-width:8}</style>
<path fill="none" stroke="black" d="M671.01,-237C670.39,-204.12 686.5,-192.02 671.01,-163"/>
<path fill="none" stroke="black" d="M358.98,-599.56C373.03,-560.37 411.25,-463.71 467.01,-399"/>
<path fill="none" stroke="black" d="M581.01,-317C618.71,-279.85 672,-291.92 671.01,-239"/>
<path fill="none" stroke="black" d="M467.01,-397C503.76,-347.82 537.28,-362.09 581.01,-319"/>
</g>
<!-- FreeBodyEngine_core&#45;&gt;freebodyengine -->
<g id="edge3" class="edge">
<title>FreeBodyEngine_core&#45;&gt;freebodyengine</title><style>.edge>path:hover{stroke-width:8}</style>
<path fill="none" stroke="black" d="M348.15,-599.62C336.18,-558.5 302.57,-452.92 253.01,-376 230.44,-340.98 126.96,-280.62 125.01,-239"/>
</g>
<!-- FreeBodyEngine_utils -->
<g id="node17" class="node">
<title>FreeBodyEngine_utils</title><style>.edge>path:hover{stroke-width:8}</style>
<polygon fill="blue" stroke="black" points="608.51,-564 517.51,-564 517.51,-528 608.51,-528 608.51,-564"/>
<text xml:space="preserve" text-anchor="middle" x="563.01" y="-548.5" font-family="Helvetica,sans-Serif" font-size="10.00" fill="white">FreeBodyEngine.</text>
<text xml:space="preserve" text-anchor="middle" x="563.01" y="-536.5" font-family="Helvetica,sans-Serif" font-size="10.00" fill="white">utils</text>
</g>
<!-- FreeBodyEngine_core&#45;&gt;FreeBodyEngine_utils -->
<g id="edge4" class="edge">
<title>FreeBodyEngine_core&#45;&gt;FreeBodyEngine_utils</title><style>.edge>path:hover{stroke-width:8}</style>
<path fill="none" stroke="black" d="M398.84,-601.72C430.53,-591.16 472.89,-577.04 506.65,-565.79"/>
<polygon fill="blue" stroke="black" points="507.47,-569.2 515.85,-562.72 505.25,-562.56 507.47,-569.2"/>
</g>
<!-- FreeBodyEngine_core_dev -->
<g id="node4" class="node">
<title>FreeBodyEngine_core_dev</title><style>.edge>path:hover{stroke-width:8}</style>
<polygon fill="blue" stroke="black" points="398.51,-716 307.51,-716 307.51,-672 398.51,-672 398.51,-716"/>
<text xml:space="preserve" text-anchor="middle" x="353.01" y="-702.5" font-family="Helvetica,sans-Serif" font-size="10.00" fill="white">FreeBodyEngine.</text>
<text xml:space="preserve" text-anchor="middle" x="353.01" y="-690.5" font-family="Helvetica,sans-Serif" font-size="10.00" fill="white">core.</text>
<text xml:space="preserve" text-anchor="middle" x="353.01" y="-678.5" font-family="Helvetica,sans-Serif" font-size="10.00" fill="white">dev</text>
</g>
<!-- FreeBodyEngine_core_dev&#45;&gt;FreeBodyEngine -->
<g id="edge5" class="edge">
<title>FreeBodyEngine_core_dev&#45;&gt;FreeBodyEngine</title><style>.edge>path:hover{stroke-width:8}</style>
<path fill="none" stroke="black" d="M378.33,-671.61C388.59,-661.73 399.71,-649.26 407.01,-636 459.4,-540.81 401.96,-486.04 467.01,-399"/>
</g>
<!-- FreeBodyEngine_core_dev&#45;&gt;freebodyengine -->
<g id="edge6" class="edge">
<title>FreeBodyEngine_core_dev&#45;&gt;freebodyengine</title><style>.edge>path:hover{stroke-width:8}</style>
<path fill="none" stroke="black" d="M310.83,-671.63C206.51,-615.93 -48.31,-460.76 49.01,-319"/>
</g>
<!-- FreeBodyEngine_core_dev&#45;&gt;FreeBodyEngine_core -->
<g id="edge7" class="edge">
<title>FreeBodyEngine_core_dev&#45;&gt;FreeBodyEngine_core</title><style>.edge>path:hover{stroke-width:8}</style>
<path fill="none" stroke="black" d="M353.01,-671.6C353.01,-664.11 353.01,-655.59 353.01,-647.61"/>
<polygon fill="blue" stroke="black" points="356.51,-647.65 353.01,-637.65 349.51,-647.65 356.51,-647.65"/>
</g>
<!-- FreeBodyEngine_core_input -->
<g id="node5" class="node">
<title>FreeBodyEngine_core_input</title><style>.edge>path:hover{stroke-width:8}</style>
<polygon fill="blue" stroke="black" points="360.51,-260 269.51,-260 269.51,-216 360.51,-216 360.51,-260"/>
<text xml:space="preserve" text-anchor="middle" x="315.01" y="-246.5" font-family="Helvetica,sans-Serif" font-size="10.00" fill="white">FreeBodyEngine.</text>
<text xml:space="preserve" text-anchor="middle" x="315.01" y="-234.5" font-family="Helvetica,sans-Serif" font-size="10.00" fill="white">core.</text>
<text xml:space="preserve" text-anchor="middle" x="315.01" y="-222.5" font-family="Helvetica,sans-Serif" font-size="10.00" fill="white">input</text>
</g>
<!-- FreeBodyEngine_core_input&#45;&gt;FreeBodyEngine -->
<g id="edge8" class="edge">
<title>FreeBodyEngine_core_input&#45;&gt;FreeBodyEngine</title><style>.edge>path:hover{stroke-width:8}</style>
<path fill="none" stroke="black" d="M671.01,-161C657.52,-133.08 576.6,-112.18 520.29,-100.78"/>
<polygon fill="blue" stroke="black" points="521,-97.35 510.51,-98.85 519.65,-104.22 521,-97.35"/>
<path fill="none" stroke="black" d="M360.69,-236.14C462.82,-233.2 698.65,-220.19 671.01,-163"/>
</g>
<!-- FreeBodyEngine_core_input&#45;&gt;freebodyengine -->
<g id="edge9" class="edge">
<title>FreeBodyEngine_core_input&#45;&gt;freebodyengine</title><style>.edge>path:hover{stroke-width:8}</style>
<path fill="none" stroke="black" d="M277.35,-215.59C232.29,-187.23 166.95,-135.6 201.01,-91"/>
</g>
<!-- FreeBodyEngine_core_input&#45;&gt;FreeBodyEngine_core -->
<g id="edge10" class="edge">
<title>FreeBodyEngine_core_input&#45;&gt;FreeBodyEngine_core</title><style>.edge>path:hover{stroke-width:8}</style>
<path fill="none" stroke="black" d="M314.72,-260.22C315.43,-282.07 319.43,-316.19 336.01,-340 360.83,-375.65 416.38,-354.09 425.68,-385.91"/>
<polygon fill="blue" stroke="black" points="422.17,-385.98 426.83,-395.5 429.12,-385.15 422.17,-385.98"/>
<path fill="none" stroke="black" d="M427.01,-399C424.29,-432.59 391.18,-425.43 377.01,-456 354.55,-504.46 352.17,-569.12 352.47,-599.65"/>
</g>
<!-- FreeBodyEngine_core_main -->
<g id="node6" class="node">
<title>FreeBodyEngine_core_main</title><style>.edge>path:hover{stroke-width:8}</style>
<polygon fill="blue" stroke="black" points="208.51,-716 117.51,-716 117.51,-672 208.51,-672 208.51,-716"/>
<text xml:space="preserve" text-anchor="middle" x="163.01" y="-702.5" font-family="Helvetica,sans-Serif" font-size="10.00" fill="white">FreeBodyEngine.</text>
<text xml:space="preserve" text-anchor="middle" x="163.01" y="-690.5" font-family="Helvetica,sans-Serif" font-size="10.00" fill="white">core.</text>
<text xml:space="preserve" text-anchor="middle" x="163.01" y="-678.5" font-family="Helvetica,sans-Serif" font-size="10.00" fill="white">main</text>
</g>
<!-- FreeBodyEngine_core_main&#45;&gt;FreeBodyEngine -->
<g id="edge11" class="edge">
<title>FreeBodyEngine_core_main&#45;&gt;FreeBodyEngine</title><style>.edge>path:hover{stroke-width:8}</style>
<path fill="none" stroke="black" d="M49.01,-545C20.24,-505.76 186.64,-173.92 225.01,-144 253.28,-121.95 347.85,-106.01 409.49,-97.66"/>
<polygon fill="blue" stroke="black" points="409.64,-101.17 419.1,-96.39 408.72,-94.23 409.64,-101.17"/>
</g>
<!-- FreeBodyEngine_core_main&#45;&gt;freebodyengine -->
<g id="edge12" class="edge">
<title>FreeBodyEngine_core_main&#45;&gt;freebodyengine</title><style>.edge>path:hover{stroke-width:8}</style>
<path fill="none" stroke="black" d="M49.01,-545C-17.37,-469.61 -11.74,-398.99 49.01,-319"/>
<path fill="none" stroke="black" d="M49.01,-317C74.78,-276.03 126.25,-287.39 125.01,-239"/>
<path fill="none" stroke="black" d="M163.01,-617C151.65,-558.64 83.2,-595.64 49.01,-547"/>
<path fill="none" stroke="black" d="M165.15,-671.74C166.13,-656.84 166.42,-636.53 163.01,-619"/>
<path fill="none" stroke="black" d="M201.01,-89C214.6,-50 331.91,-31.67 405.51,-23.93"/>
<polygon fill="blue" stroke="black" points="405.82,-27.42 415.42,-22.93 405.12,-20.45 405.82,-27.42"/>
<path fill="none" stroke="black" d="M125.01,-237C123.14,-163.87 176.94,-160.08 201.01,-91"/>
</g>
<!-- FreeBodyEngine_core_main&#45;&gt;FreeBodyEngine_core -->
<g id="edge13" class="edge">
<title>FreeBodyEngine_core_main&#45;&gt;FreeBodyEngine_core</title><style>.edge>path:hover{stroke-width:8}</style>
<path fill="none" stroke="black" d="M209,-675.09C235.69,-664.69 269.47,-651.54 297.61,-640.58"/>
<polygon fill="blue" stroke="black" points="298.64,-643.93 306.68,-637.04 296.1,-637.41 298.64,-643.93"/>
</g>
<!-- FreeBodyEngine_core_main&#45;&gt;FreeBodyEngine_core_input -->
<g id="edge14" class="edge">
<title>FreeBodyEngine_core_main&#45;&gt;FreeBodyEngine_core_input</title><style>.edge>path:hover{stroke-width:8}</style>
<path fill="none" stroke="black" d="M163.01,-617C158.96,-593.28 245.19,-442.76 253.01,-420 268,-376.36 252.24,-357.93 277.01,-319"/>
</g>
<!-- FreeBodyEngine_core_scene -->
<g id="node8" class="node">
<title>FreeBodyEngine_core_scene</title><style>.edge>path:hover{stroke-width:8}</style>
<polygon fill="blue" stroke="black" points="244.51,-420 153.51,-420 153.51,-376 244.51,-376 244.51,-420"/>
<text xml:space="preserve" text-anchor="middle" x="199.01" y="-406.5" font-family="Helvetica,sans-Serif" font-size="10.00" fill="white">FreeBodyEngine.</text>
<text xml:space="preserve" text-anchor="middle" x="199.01" y="-394.5" font-family="Helvetica,sans-Serif" font-size="10.00" fill="white">core.</text>
<text xml:space="preserve" text-anchor="middle" x="199.01" y="-382.5" font-family="Helvetica,sans-Serif" font-size="10.00" fill="white">scene</text>
</g>
<!-- FreeBodyEngine_core_main&#45;&gt;FreeBodyEngine_core_scene -->
<g id="edge15" class="edge">
<title>FreeBodyEngine_core_main&#45;&gt;FreeBodyEngine_core_scene</title><style>.edge>path:hover{stroke-width:8}</style>
<path fill="none" stroke="black" d="M163.01,-545C149.5,-506.18 166.23,-459.89 181.1,-430"/>
<polygon fill="blue" stroke="black" points="184.02,-431.98 185.54,-421.49 177.81,-428.74 184.02,-431.98"/>
<path fill="none" stroke="black" d="M163.01,-617C157.77,-586.33 172.93,-576.49 163.01,-547"/>
</g>
<!-- FreeBodyEngine_core_mouse -->
<g id="node7" class="node">
<title>FreeBodyEngine_core_mouse</title><style>.edge>path:hover{stroke-width:8}</style>
<polygon fill="blue" stroke="black" points="890.51,-420 799.51,-420 799.51,-376 890.51,-376 890.51,-420"/>
<text xml:space="preserve" text-anchor="middle" x="845.01" y="-406.5" font-family="Helvetica,sans-Serif" font-size="10.00" fill="white">FreeBodyEngine.</text>
<text xml:space="preserve" text-anchor="middle" x="845.01" y="-394.5" font-family="Helvetica,sans-Serif" font-size="10.00" fill="white">core.</text>
<text xml:space="preserve" text-anchor="middle" x="845.01" y="-382.5" font-family="Helvetica,sans-Serif" font-size="10.00" fill="white">mouse</text>
</g>
<!-- FreeBodyEngine_core_mouse&#45;&gt;FreeBodyEngine -->
<g id="edge16" class="edge">
<title>FreeBodyEngine_core_mouse&#45;&gt;FreeBodyEngine</title><style>.edge>path:hover{stroke-width:8}</style>
<path fill="none" stroke="black" d="M877.01,-317C870.45,-260.22 695.88,-214.46 671.01,-163"/>
<path fill="none" stroke="black" d="M859.44,-375.75C868.29,-360.58 877.79,-339.33 877.01,-319"/>
</g>
<!-- FreeBodyEngine_core_mouse&#45;&gt;freebodyengine -->
<g id="edge17" class="edge">
<title>FreeBodyEngine_core_mouse&#45;&gt;freebodyengine</title><style>.edge>path:hover{stroke-width:8}</style>
<path fill="none" stroke="black" d="M877.01,-317C875.65,-281.45 914.91,-268.49 895.01,-239"/>
<path fill="none" stroke="black" d="M895.01,-237C868.64,-197.92 815.52,-210.02 819.01,-163"/>
</g>
<!-- FreeBodyEngine_core_scene&#45;&gt;FreeBodyEngine -->
<g id="edge18" class="edge">
<title>FreeBodyEngine_core_scene&#45;&gt;FreeBodyEngine</title><style>.edge>path:hover{stroke-width:8}</style>
<path fill="none" stroke="black" d="M204.8,-375.62C212.92,-345.33 227.93,-288.13 239.01,-239"/>
</g>
<!-- FreeBodyEngine_core_scene&#45;&gt;freebodyengine -->
<g id="edge19" class="edge">
<title>FreeBodyEngine_core_scene&#45;&gt;freebodyengine</title><style>.edge>path:hover{stroke-width:8}</style>
<path fill="none" stroke="black" d="M181.66,-375.73C159.79,-346.69 125.01,-292.16 125.01,-239"/>
</g>
<!-- FreeBodyEngine_core_scene&#45;&gt;FreeBodyEngine_core -->
<g id="edge20" class="edge">
<title>FreeBodyEngine_core_scene&#45;&gt;FreeBodyEngine_core</title><style>.edge>path:hover{stroke-width:8}</style>
<path fill="none" stroke="black" d="M210.17,-420.3C227.6,-452.71 263.2,-515.76 301.01,-564 308.52,-573.59 317.58,-583.32 326.01,-591.78"/>
<polygon fill="blue" stroke="black" points="323.48,-594.21 333.07,-598.71 328.38,-589.21 323.48,-594.21"/>
</g>
<!-- FreeBodyEngine_core_service -->
<g id="node9" class="node">
<title>FreeBodyEngine_core_service</title><style>.edge>path:hover{stroke-width:8}</style>
<polygon fill="blue" stroke="black" points="494.51,-956 403.51,-956 403.51,-912 494.51,-912 494.51,-956"/>
<text xml:space="preserve" text-anchor="middle" x="449.01" y="-942.5" font-family="Helvetica,sans-Serif" font-size="10.00" fill="white">FreeBodyEngine.</text>
<text xml:space="preserve" text-anchor="middle" x="449.01" y="-930.5" font-family="Helvetica,sans-Serif" font-size="10.00" fill="white">core.</text>
<text xml:space="preserve" text-anchor="middle" x="449.01" y="-918.5" font-family="Helvetica,sans-Serif" font-size="10.00" fill="white">service</text>
</g>
<!-- FreeBodyEngine_core_service&#45;&gt;FreeBodyEngine -->
<g id="edge21" class="edge">
<title>FreeBodyEngine_core_service&#45;&gt;FreeBodyEngine</title><style>.edge>path:hover{stroke-width:8}</style>
<path fill="none" stroke="black" d="M843.01,-773C904.97,-699.45 969.94,-711.84 995.01,-619"/>
<path fill="none" stroke="black" d="M995.01,-617C996.71,-607.78 896.28,-303.75 891.01,-296 859.58,-249.79 842.7,-243.42 794.01,-216 742.14,-186.79 699.04,-215.51 671.01,-163"/>
</g>
<!-- FreeBodyEngine_core_service&#45;&gt;freebodyengine -->
<g id="edge22" class="edge">
<title>FreeBodyEngine_core_service&#45;&gt;freebodyengine</title><style>.edge>path:hover{stroke-width:8}</style>
<path fill="none" stroke="black" d="M995.01,-617C1002.44,-586.79 989.68,-577.65 995.01,-547"/>
</g>
<!-- FreeBodyEngine_core_service&#45;&gt;FreeBodyEngine_core_input -->
<g id="edge23" class="edge">
<title>FreeBodyEngine_core_service&#45;&gt;FreeBodyEngine_core_input</title><style>.edge>path:hover{stroke-width:8}</style>
<path fill="none" stroke="black" d="M163.01,-773C152.36,-739.45 129.15,-744.15 108.01,-716 55.99,-646.76 37.59,-629.42 11.01,-547"/>
<path fill="none" stroke="black" d="M403.29,-927.46C328.27,-915.43 185.13,-879.03 163.01,-775"/>
<path fill="none" stroke="black" d="M11.01,-545C-3.28,-508.07 -5.02,-490.16 15.01,-456 49.13,-397.8 84.17,-407.15 144.01,-376 201.05,-346.3 237.45,-369.7 277.01,-319"/>
<path fill="none" stroke="black" d="M277.01,-317C286.45,-302.52 295.06,-285.35 301.69,-270.81"/>
<polygon fill="blue" stroke="black" points="304.89,-272.23 305.74,-261.67 298.49,-269.4 304.89,-272.23"/>
</g>
<!-- FreeBodyEngine_core_service&#45;&gt;FreeBodyEngine_core_main -->
<g id="edge24" class="edge">
<title>FreeBodyEngine_core_service&#45;&gt;FreeBodyEngine_core_main</title><style>.edge>path:hover{stroke-width:8}</style>
<path fill="none" stroke="black" d="M163.01,-773C158.43,-758.58 157.85,-741.89 158.65,-727.66"/>
<polygon fill="blue" stroke="black" points="162.12,-728.15 159.46,-717.9 155.14,-727.57 162.12,-728.15"/>
</g>
<!-- FreeBodyEngine_core_service&#45;&gt;FreeBodyEngine_core_mouse -->
<g id="edge25" class="edge">
<title>FreeBodyEngine_core_service&#45;&gt;FreeBodyEngine_core_mouse</title><style>.edge>path:hover{stroke-width:8}</style>
<path fill="none" stroke="black" d="M495,-923.95C595.44,-902.89 826.8,-846.89 843.01,-775"/>
<path fill="none" stroke="black" d="M843.01,-773C886.99,-720.55 804.45,-675.55 843.01,-619"/>
</g>
<!-- FreeBodyEngine_core_service&#45;&gt;FreeBodyEngine_core_scene -->
<g id="edge26" class="edge">
<title>FreeBodyEngine_core_service&#45;&gt;FreeBodyEngine_core_scene</title><style>.edge>path:hover{stroke-width:8}</style>
<path fill="none" stroke="black" d="M11.01,-545C-15.14,-479.2 77.93,-436.08 142.34,-414.75"/>
<polygon fill="blue" stroke="black" points="143.31,-418.12 151.77,-411.73 141.18,-411.45 143.31,-418.12"/>
</g>
<!-- FreeBodyEngine_core_time -->
<g id="node10" class="node">
<title>FreeBodyEngine_core_time</title><style>.edge>path:hover{stroke-width:8}</style>
<polygon fill="blue" stroke="black" points="494.51,-876 403.51,-876 403.51,-832 494.51,-832 494.51,-876"/>
<text xml:space="preserve" text-anchor="middle" x="449.01" y="-862.5" font-family="Helvetica,sans-Serif" font-size="10.00" fill="white">FreeBodyEngine.</text>
<text xml:space="preserve" text-anchor="middle" x="449.01" y="-850.5" font-family="Helvetica,sans-Serif" font-size="10.00" fill="white">core.</text>
<text xml:space="preserve" text-anchor="middle" x="449.01" y="-838.5" font-family="Helvetica,sans-Serif" font-size="10.00" fill="white">time</text>
</g>
<!-- FreeBodyEngine_core_service&#45;&gt;FreeBodyEngine_core_time -->
<g id="edge27" class="edge">
<title>FreeBodyEngine_core_service&#45;&gt;FreeBodyEngine_core_time</title><style>.edge>path:hover{stroke-width:8}</style>
<path fill="none" stroke="black" d="M449.01,-911.69C449.01,-904.29 449.01,-895.82 449.01,-887.72"/>
<polygon fill="blue" stroke="black" points="452.51,-887.8 449.01,-877.8 445.51,-887.8 452.51,-887.8"/>
</g>
<!-- FreeBodyEngine_core_time&#45;&gt;FreeBodyEngine -->
<g id="edge28" class="edge">
<title>FreeBodyEngine_core_time&#45;&gt;FreeBodyEngine</title><style>.edge>path:hover{stroke-width:8}</style>
<path fill="none" stroke="black" d="M695.01,-693C604.37,-553.53 729.74,-484.04 709.01,-319"/>
<path fill="none" stroke="black" d="M709.01,-317C698.29,-279.96 671.73,-277.56 671.01,-239"/>
</g>
<!-- FreeBodyEngine_core_time&#45;&gt;freebodyengine -->
<g id="edge29" class="edge">
<title>FreeBodyEngine_core_time&#45;&gt;freebodyengine</title><style>.edge>path:hover{stroke-width:8}</style>
<path fill="none" stroke="black" d="M695.01,-773C767.76,-732.08 981.9,-629.43 995.01,-547"/>
<path fill="none" stroke="black" d="M995.01,-545C1000.34,-514.35 991.62,-505.93 995.01,-475"/>
</g>
<!-- FreeBodyEngine_core_time&#45;&gt;FreeBodyEngine_core -->
<g id="edge30" class="edge">
<title>FreeBodyEngine_core_time&#45;&gt;FreeBodyEngine_core</title><style>.edge>path:hover{stroke-width:8}</style>
<path fill="none" stroke="black" d="M695.01,-773C725.22,-756 713.9,-724.07 695.01,-695"/>
<path fill="none" stroke="black" d="M494.81,-844.38C546,-833.44 630.19,-811.46 695.01,-775"/>
<path fill="none" stroke="black" d="M695.01,-693C664.37,-645.85 499.18,-628.19 410.08,-622.03"/>
<polygon fill="blue" stroke="black" points="410.54,-618.56 400.33,-621.39 410.07,-625.54 410.54,-618.56"/>
</g>
<!-- FreeBodyEngine_core_time&#45;&gt;FreeBodyEngine_core_main -->
<g id="edge31" class="edge">
<title>FreeBodyEngine_core_time&#45;&gt;FreeBodyEngine_core_main</title><style>.edge>path:hover{stroke-width:8}</style>
<path fill="none" stroke="black" d="M410.14,-831.53C358.67,-803.09 267.88,-752.93 211.84,-721.97"/>
<polygon fill="blue" stroke="black" points="213.56,-718.93 203.12,-717.16 210.18,-725.06 213.56,-718.93"/>
</g>
<!-- FreeBodyEngine_core_update -->
<g id="node11" class="node">
<title>FreeBodyEngine_core_update</title><style>.edge>path:hover{stroke-width:8}</style>
<polygon fill="blue" stroke="black" points="494.51,-796 403.51,-796 403.51,-752 494.51,-752 494.51,-796"/>
<text xml:space="preserve" text-anchor="middle" x="449.01" y="-782.5" font-family="Helvetica,sans-Serif" font-size="10.00" fill="white">FreeBodyEngine.</text>
<text xml:space="preserve" text-anchor="middle" x="449.01" y="-770.5" font-family="Helvetica,sans-Serif" font-size="10.00" fill="white">core.</text>
<text xml:space="preserve" text-anchor="middle" x="449.01" y="-758.5" font-family="Helvetica,sans-Serif" font-size="10.00" fill="white">update</text>
</g>
<!-- FreeBodyEngine_core_time&#45;&gt;FreeBodyEngine_core_update -->
<g id="edge32" class="edge">
<title>FreeBodyEngine_core_time&#45;&gt;FreeBodyEngine_core_update</title><style>.edge>path:hover{stroke-width:8}</style>
<path fill="none" stroke="black" d="M449.01,-820.25C449.01,-816.07 449.01,-811.8 449.01,-807.62"/>
<polygon fill="blue" stroke="black" points="445.51,-820.17 449.01,-830.17 452.51,-820.17 445.51,-820.17"/>
<polygon fill="blue" stroke="black" points="452.51,-807.8 449.01,-797.8 445.51,-807.8 452.51,-807.8"/>
</g>
<!-- FreeBodyEngine_core_update&#45;&gt;FreeBodyEngine -->
<g id="edge33" class="edge">
<title>FreeBodyEngine_core_update&#45;&gt;FreeBodyEngine</title><style>.edge>path:hover{stroke-width:8}</style>
<path fill="none" stroke="black" d="M277.01,-693C262.53,-678.93 157.02,-582.53 149.01,-564 115.84,-487.28 119.06,-455.77 144.01,-376 166.13,-305.28 219.35,-310.44 239.01,-239"/>
<path fill="none" stroke="black" d="M239.01,-237C256.05,-160.27 348.34,-121.33 409.59,-103.65"/>
<polygon fill="blue" stroke="black" points="410.47,-107.04 419.18,-101 408.61,-100.29 410.47,-107.04"/>
<path fill="none" stroke="black" d="M403.05,-761.2C371.84,-751.9 330.5,-736.97 298.01,-716 286.92,-708.84 286.54,-704.14 277.01,-695"/>
</g>
<!-- FreeBodyEngine_core_update&#45;&gt;freebodyengine -->
<g id="edge34" class="edge">
<title>FreeBodyEngine_core_update&#45;&gt;freebodyengine</title><style>.edge>path:hover{stroke-width:8}</style>
<path fill="none" stroke="black" d="M494.57,-768.39C615.88,-753.2 941.13,-692.51 995.01,-475"/>
<path fill="none" stroke="black" d="M995.01,-473C998.59,-440.31 992.63,-431.8 995.01,-399"/>
</g>
<!-- FreeBodyEngine_core_update&#45;&gt;FreeBodyEngine_core_input -->
<g id="edge35" class="edge">
<title>FreeBodyEngine_core_update&#45;&gt;FreeBodyEngine_core_input</title><style>.edge>path:hover{stroke-width:8}</style>
<path fill="none" stroke="black" d="M277.01,-617C271.57,-601.36 267.85,-332.79 277.01,-319"/>
</g>
<!-- FreeBodyEngine_core_update&#45;&gt;FreeBodyEngine_core_main -->
<g id="edge36" class="edge">
<title>FreeBodyEngine_core_update&#45;&gt;FreeBodyEngine_core_main</title><style>.edge>path:hover{stroke-width:8}</style>
<path fill="none" stroke="black" d="M403.18,-756.76C398.08,-755.09 392.95,-753.47 388.01,-752 331.41,-735.12 265.86,-718.88 220.17,-708.09"/>
<polygon fill="blue" stroke="black" points="221,-704.69 210.47,-705.81 219.4,-711.5 221,-704.69"/>
</g>
<!-- FreeBodyEngine_core_update&#45;&gt;FreeBodyEngine_core_mouse -->
<g id="edge37" class="edge">
<title>FreeBodyEngine_core_update&#45;&gt;FreeBodyEngine_core_mouse</title><style>.edge>path:hover{stroke-width:8}</style>
<path fill="none" stroke="black" d="M843.01,-617C871.61,-556.7 861.76,-476.04 852.86,-431.68"/>
<polygon fill="blue" stroke="black" points="856.29,-430.97 850.78,-421.91 849.44,-432.42 856.29,-430.97"/>
<path fill="none" stroke="black" d="M492.21,-751.64C538.18,-729.52 613.44,-695.04 681.01,-672 752.71,-647.55 802.66,-683.12 843.01,-619"/>
</g>
<!-- FreeBodyEngine_core_update&#45;&gt;FreeBodyEngine_core_scene -->
<g id="edge38" class="edge">
<title>FreeBodyEngine_core_update&#45;&gt;FreeBodyEngine_core_scene</title><style>.edge>path:hover{stroke-width:8}</style>
<path fill="none" stroke="black" d="M277.01,-617C257.47,-560.85 181.96,-603.36 163.01,-547"/>
<path fill="none" stroke="black" d="M277.01,-693C253.43,-670.08 287.82,-650.06 277.01,-619"/>
</g>
<!-- FreeBodyEngine_core_window -->
<g id="node12" class="node">
<title>FreeBodyEngine_core_window</title><style>.edge>path:hover{stroke-width:8}</style>
<polygon fill="blue" stroke="black" points="472.51,-340 381.51,-340 381.51,-296 472.51,-296 472.51,-340"/>
<text xml:space="preserve" text-anchor="middle" x="427.01" y="-326.5" font-family="Helvetica,sans-Serif" font-size="10.00" fill="white">FreeBodyEngine.</text>
<text xml:space="preserve" text-anchor="middle" x="427.01" y="-314.5" font-family="Helvetica,sans-Serif" font-size="10.00" fill="white">core.</text>
<text xml:space="preserve" text-anchor="middle" x="427.01" y="-302.5" font-family="Helvetica,sans-Serif" font-size="10.00" fill="white">window</text>
</g>
<!-- FreeBodyEngine_core_window&#45;&gt;FreeBodyEngine -->
<g id="edge40" class="edge">
<title>FreeBodyEngine_core_window&#45;&gt;FreeBodyEngine</title><style>.edge>path:hover{stroke-width:8}</style>
<path fill="none" stroke="black" d="M633.01,-237C634.4,-200.05 687.09,-196.29 671.01,-163"/>
</g>
<!-- FreeBodyEngine_core_window&#45;&gt;freebodyengine -->
<g id="edge41" class="edge">
<title>FreeBodyEngine_core_window&#45;&gt;freebodyengine</title><style>.edge>path:hover{stroke-width:8}</style>
<path fill="none" stroke="black" d="M472.88,-309.06C533.19,-297.3 631.73,-272.92 633.01,-239"/>
<path fill="none" stroke="black" d="M633.01,-237C636.83,-135.74 141.96,-173.35 201.01,-91"/>
</g>
<!-- FreeBodyEngine_core_window&#45;&gt;FreeBodyEngine_core -->
<g id="edge42" class="edge">
<title>FreeBodyEngine_core_window&#45;&gt;FreeBodyEngine_core</title><style>.edge>path:hover{stroke-width:8}</style>
<path fill="none" stroke="black" d="M427.93,-340.22C428.3,-352.86 428.48,-369.51 427.73,-385.52"/>
<polygon fill="blue" stroke="black" points="424.24,-385.29 427.1,-395.49 431.23,-385.73 424.24,-385.29"/>
</g>
<!-- FreeBodyEngine_core_window&#45;&gt;FreeBodyEngine_core_input -->
<g id="edge43" class="edge">
<title>FreeBodyEngine_core_window&#45;&gt;FreeBodyEngine_core_input</title><style>.edge>path:hover{stroke-width:8}</style>
<path fill="none" stroke="black" d="M396.41,-295.69C383.57,-286.74 368.46,-276.23 354.78,-266.7"/>
<polygon fill="blue" stroke="black" points="357.03,-264 346.82,-261.15 353.03,-269.74 357.03,-264"/>
</g>
<!-- FreeBodyEngine_graphics -->
<g id="node13" class="node">
<title>FreeBodyEngine_graphics</title><style>.edge>path:hover{stroke-width:8}</style>
<polygon fill="blue" stroke="black" points="662.51,-492 571.51,-492 571.51,-456 662.51,-456 662.51,-492"/>
<text xml:space="preserve" text-anchor="middle" x="617.01" y="-476.5" font-family="Helvetica,sans-Serif" font-size="10.00" fill="white">FreeBodyEngine.</text>
<text xml:space="preserve" text-anchor="middle" x="617.01" y="-464.5" font-family="Helvetica,sans-Serif" font-size="10.00" fill="white">graphics</text>
</g>
<!-- FreeBodyEngine_graphics&#45;&gt;FreeBodyEngine -->
<g id="edge44" class="edge">
<title>FreeBodyEngine_graphics&#45;&gt;FreeBodyEngine</title><style>.edge>path:hover{stroke-width:8}</style>
<path fill="none" stroke="black" d="M620.62,-455.51C624.92,-435.84 632.83,-403.09 643.01,-376 652.93,-349.58 659.89,-344.94 671.01,-319"/>
<path fill="none" stroke="black" d="M671.01,-317C681.94,-284.1 674.32,-273.51 671.01,-239"/>
</g>
<!-- FreeBodyEngine_graphics&#45;&gt;freebodyengine -->
<g id="edge45" class="edge">
<title>FreeBodyEngine_graphics&#45;&gt;freebodyengine</title><style>.edge>path:hover{stroke-width:8}</style>
<path fill="none" stroke="black" d="M819.01,-161C821.31,-129.97 832.48,-119.04 819.01,-91"/>
<path fill="none" stroke="black" d="M671.01,-317C700.94,-226.92 811.99,-257.67 819.01,-163"/>
</g>
<!-- FreeBodyEngine_graphics&#45;&gt;FreeBodyEngine_core_window -->
<g id="edge46" class="edge">
<title>FreeBodyEngine_graphics&#45;&gt;FreeBodyEngine_core_window</title><style>.edge>path:hover{stroke-width:8}</style>
<path fill="none" stroke="black" d="M601.76,-455.68C583.32,-435.29 550.78,-401.04 519.01,-376 505.58,-365.42 490.07,-355.15 475.66,-346.32"/>
<polygon fill="blue" stroke="black" points="477.57,-343.39 467.2,-341.23 473.96,-349.38 477.57,-343.39"/>
</g>
<!-- FreeBodyEngine_math -->
<g id="node14" class="node">
<title>FreeBodyEngine_math</title><style>.edge>path:hover{stroke-width:8}</style>
<polygon fill="blue" stroke="black" points="814.51,-564 723.51,-564 723.51,-528 814.51,-528 814.51,-564"/>
<text xml:space="preserve" text-anchor="middle" x="769.01" y="-548.5" font-family="Helvetica,sans-Serif" font-size="10.00" fill="white">FreeBodyEngine.</text>
<text xml:space="preserve" text-anchor="middle" x="769.01" y="-536.5" font-family="Helvetica,sans-Serif" font-size="10.00" fill="white">math</text>
</g>
<!-- FreeBodyEngine_math&#45;&gt;FreeBodyEngine -->
<g id="edge47" class="edge">
<title>FreeBodyEngine_math&#45;&gt;FreeBodyEngine</title><style>.edge>path:hover{stroke-width:8}</style>
<path fill="none" stroke="black" d="M780.66,-527.76C789.18,-514.1 800.08,-494.19 805.01,-475"/>
<path fill="none" stroke="black" d="M805.01,-473C810.4,-452.01 735.01,-314.05 723.01,-296 704.03,-267.44 674.29,-273.13 671.01,-239"/>
</g>
<!-- FreeBodyEngine_math&#45;&gt;freebodyengine -->
<g id="edge48" class="edge">
<title>FreeBodyEngine_math&#45;&gt;freebodyengine</title><style>.edge>path:hover{stroke-width:8}</style>
<path fill="none" stroke="black" d="M793.05,-527.69C851.52,-484.58 995.42,-372.09 981.01,-319"/>
<path fill="none" stroke="black" d="M981.01,-317C964.19,-268.22 923.87,-281.77 895.01,-239"/>
</g>
<!-- FreeBodyEngine_math&#45;&gt;FreeBodyEngine_core_input -->
<g id="edge49" class="edge">
<title>FreeBodyEngine_math&#45;&gt;FreeBodyEngine_core_input</title><style>.edge>path:hover{stroke-width:8}</style>
<path fill="none" stroke="black" d="M723.34,-540.11C679.66,-533.91 613.07,-520.39 562.01,-492 496.9,-455.8 501.53,-419.44 441.01,-376 412.91,-355.83 396.87,-364.05 372.01,-340 351.83,-320.48 336.73,-292.26 327.15,-270.61"/>
<polygon fill="blue" stroke="black" points="330.49,-269.51 323.36,-261.66 324.04,-272.23 330.49,-269.51"/>
</g>
<!-- FreeBodyEngine_math&#45;&gt;FreeBodyEngine_core_mouse -->
<g id="edge50" class="edge">
<title>FreeBodyEngine_math&#45;&gt;FreeBodyEngine_core_mouse</title><style>.edge>path:hover{stroke-width:8}</style>
<path fill="none" stroke="black" d="M805.01,-473C808.85,-458.04 816.35,-442.82 823.82,-430.1"/>
<polygon fill="blue" stroke="black" points="826.68,-432.13 828.94,-421.78 820.72,-428.46 826.68,-432.13"/>
</g>
<!-- FreeBodyEngine_net -->
<g id="node15" class="node">
<title>FreeBodyEngine_net</title><style>.edge>path:hover{stroke-width:8}</style>
<polygon fill="blue" stroke="black" points="790.51,-180 699.51,-180 699.51,-144 790.51,-144 790.51,-180"/>
<text xml:space="preserve" text-anchor="middle" x="745.01" y="-164.5" font-family="Helvetica,sans-Serif" font-size="10.00" fill="white">FreeBodyEngine.</text>
<text xml:space="preserve" text-anchor="middle" x="745.01" y="-152.5" font-family="Helvetica,sans-Serif" font-size="10.00" fill="white">net</text>
</g>
<!-- FreeBodyEngine_net&#45;&gt;FreeBodyEngine -->
<g id="edge51" class="edge">
<title>FreeBodyEngine_net&#45;&gt;FreeBodyEngine</title><style>.edge>path:hover{stroke-width:8}</style>
<path fill="none" stroke="black" d="M699.2,-147.82C694.41,-146.5 689.62,-145.21 685.01,-144 629.25,-129.39 565.13,-114.12 520.56,-103.74"/>
<polygon fill="blue" stroke="black" points="521.39,-100.34 510.86,-101.49 519.81,-107.16 521.39,-100.34"/>
</g>
<!-- FreeBodyEngine_net&#45;&gt;freebodyengine -->
<g id="edge52" class="edge">
<title>FreeBodyEngine_net&#45;&gt;freebodyengine</title><style>.edge>path:hover{stroke-width:8}</style>
<path fill="none" stroke="black" d="M819.01,-89C793.92,-36.75 620.16,-23.46 525.76,-20.11"/>
<polygon fill="blue" stroke="black" points="525.99,-16.62 515.89,-19.79 525.77,-23.61 525.99,-16.62"/>
<path fill="none" stroke="black" d="M785.41,-143.57C807.89,-131.08 829.42,-112.68 819.01,-91"/>
</g>
<!-- FreeBodyEngine_ui -->
<g id="node16" class="node">
<title>FreeBodyEngine_ui</title><style>.edge>path:hover{stroke-width:8}</style>
<polygon fill="blue" stroke="black" points="814.51,-636 723.51,-636 723.51,-600 814.51,-600 814.51,-636"/>
<text xml:space="preserve" text-anchor="middle" x="769.01" y="-620.5" font-family="Helvetica,sans-Serif" font-size="10.00" fill="white">FreeBodyEngine.</text>
<text xml:space="preserve" text-anchor="middle" x="769.01" y="-608.5" font-family="Helvetica,sans-Serif" font-size="10.00" fill="white">ui</text>
</g>
<!-- FreeBodyEngine_ui&#45;&gt;FreeBodyEngine -->
<g id="edge53" class="edge">
<title>FreeBodyEngine_ui&#45;&gt;FreeBodyEngine</title><style>.edge>path:hover{stroke-width:8}</style>
<path fill="none" stroke="black" d="M743.8,-599.63C732.75,-590.46 720.96,-578.17 715.01,-564 708.82,-549.25 709.82,-543.13 715.01,-528 721.59,-508.83 736.43,-511.17 743.01,-492 757.85,-448.73 718.03,-385.35 709.01,-319"/>
</g>
<!-- FreeBodyEngine_ui&#45;&gt;freebodyengine -->
<g id="edge54" class="edge">
<title>FreeBodyEngine_ui&#45;&gt;freebodyengine</title><style>.edge>path:hover{stroke-width:8}</style>
<path fill="none" stroke="black" d="M995.01,-397C1000.11,-362.15 992.49,-352.3 981.01,-319"/>
<path fill="none" stroke="black" d="M793.45,-599.57C850.26,-558.23 987.02,-453.62 995.01,-399"/>
</g>
<!-- FreeBodyEngine_ui&#45;&gt;FreeBodyEngine_utils -->
<g id="edge55" class="edge">
<title>FreeBodyEngine_ui&#45;&gt;FreeBodyEngine_utils</title><style>.edge>path:hover{stroke-width:8}</style>
<path fill="none" stroke="black" d="M723.04,-601.38C692.46,-590.99 652.09,-577.27 619.55,-566.21"/>
<polygon fill="blue" stroke="black" points="620.87,-562.96 610.28,-563.06 618.62,-569.59 620.87,-562.96"/>
</g>
<!-- FreeBodyEngine_utils&#45;&gt;FreeBodyEngine -->
<g id="edge56" class="edge">
<title>FreeBodyEngine_utils&#45;&gt;FreeBodyEngine</title><style>.edge>path:hover{stroke-width:8}</style>
<path fill="none" stroke="black" d="M558.14,-527.6C547.59,-485.73 527.63,-378.45 581.01,-319"/>
</g>
<!-- FreeBodyEngine_utils&#45;&gt;freebodyengine -->
<g id="edge57" class="edge">
<title>FreeBodyEngine_utils&#45;&gt;freebodyengine</title><style>.edge>path:hover{stroke-width:8}</style>
<path fill="none" stroke="black" d="M608.88,-534.75C645.09,-524.68 695.02,-506.2 729.01,-475"/>
<path fill="none" stroke="black" d="M729.01,-473C781.85,-424.49 821,-234.71 819.01,-163"/>
</g>
<!-- FreeBodyEngine_utils&#45;&gt;FreeBodyEngine_core_mouse -->
<g id="edge58" class="edge">
<title>FreeBodyEngine_utils&#45;&gt;FreeBodyEngine_core_mouse</title><style>.edge>path:hover{stroke-width:8}</style>
<path fill="none" stroke="black" d="M729.01,-473C748.45,-455.15 772.73,-438.92 794.03,-426.24"/>
<polygon fill="blue" stroke="black" points="795.72,-429.31 802.6,-421.25 792.19,-423.26 795.72,-429.31"/>
</g>
<!-- FreeBodyEngine_utils&#45;&gt;FreeBodyEngine_core_scene -->
<g id="edge59" class="edge">
<title>FreeBodyEngine_utils&#45;&gt;FreeBodyEngine_core_scene</title><style>.edge>path:hover{stroke-width:8}</style>
<path fill="none" stroke="black" d="M519.46,-527.53C453.46,-501.06 328.07,-450.76 255.24,-421.56"/>
<polygon fill="blue" stroke="black" points="256.88,-418.44 246.3,-417.97 254.28,-424.94 256.88,-418.44"/>
</g>
<!-- FreeBodyEngine_utils&#45;&gt;FreeBodyEngine_graphics -->
<g id="edge60" class="edge">
<title>FreeBodyEngine_utils&#45;&gt;FreeBodyEngine_graphics</title><style>.edge>path:hover{stroke-width:8}</style>
<path fill="none" stroke="black" d="M576.36,-527.7C582.57,-519.64 590.09,-509.89 596.97,-500.98"/>
<polygon fill="blue" stroke="black" points="599.55,-503.36 602.89,-493.3 594.01,-499.08 599.55,-503.36"/>
</g>
</g>
</svg>
